<svg width="18" height="18" viewBox="0 0 18 18" fill="none" xmlns="http://www.w3.org/2000/svg">
<g clip-path="url(#clip0_442_555)">
<path fill-rule="evenodd" clip-rule="evenodd" d="M12 5.0625C11.4822 5.0625 11.0625 5.48223 11.0625 6C11.0625 6.51777 11.4822 6.9375 12 6.9375C12.5178 6.9375 12.9375 6.51777 12.9375 6C12.9375 5.48223 12.5178 5.0625 12 5.0625ZM9.9375 6C9.9375 4.86091 10.8609 3.9375 12 3.9375C13.1391 3.9375 14.0625 4.86091 14.0625 6C14.0625 7.13909 13.1391 8.0625 12 8.0625C10.8609 8.0625 9.9375 7.13909 9.9375 6Z" fill="#616161"/>
<path fill-rule="evenodd" clip-rule="evenodd" d="M8.95697 0.9375H9.04303C10.7743 0.937491 12.1311 0.937483 13.1897 1.07981C14.2733 1.22549 15.1283 1.5295 15.7994 2.2006C16.4705 2.87171 16.7745 3.72673 16.9202 4.81028C17.0625 5.8689 17.0625 7.22567 17.0625 8.95697V9.04303C17.0625 10.7743 17.0625 12.1311 16.9202 13.1897C16.7745 14.2733 16.4705 15.1283 15.7994 15.7994C15.1283 16.4705 14.2733 16.7745 13.1897 16.9202C12.1311 17.0625 10.7743 17.0625 9.04303 17.0625H8.95697C7.22567 17.0625 5.8689 17.0625 4.81028 16.9202C3.72673 16.7745 2.87171 16.4705 2.2006 15.7994C1.5295 15.1283 1.22549 14.2733 1.07981 13.1897C0.937483 12.1311 0.937491 10.7743 0.9375 9.04303V8.95697C0.937491 7.22567 0.937483 5.86889 1.07981 4.81028C1.22549 3.72673 1.5295 2.87171 2.2006 2.2006C2.87171 1.5295 3.72673 1.22549 4.81028 1.07981C5.86889 0.937483 7.22567 0.937491 8.95697 0.9375ZM2.9961 15.0039C2.56886 14.5767 2.32369 13.9986 2.19478 13.0398C2.07967 12.1837 2.06472 11.0914 2.06279 9.6301L3.1841 8.64896C3.64468 8.24595 4.33886 8.26906 4.77162 8.70182L7.98891 11.9191C8.69762 12.6278 9.81322 12.7245 10.6332 12.1482L10.8569 11.991C11.5005 11.5386 12.3713 11.5911 12.9561 12.1173L15.3737 14.2932C15.4 14.3169 15.4279 14.3376 15.4571 14.3554C15.3359 14.6111 15.1865 14.8213 15.0039 15.0039C14.5767 15.4311 13.9986 15.6763 13.0398 15.8052C12.0648 15.9363 10.7837 15.9375 9 15.9375C7.21633 15.9375 5.93517 15.9363 4.96018 15.8052C4.00138 15.6763 3.42334 15.4311 2.9961 15.0039ZM4.96018 2.19478C4.00138 2.32369 3.42334 2.56886 2.9961 2.9961C2.56886 3.42334 2.32369 4.00138 2.19478 4.96018C2.08593 5.7698 2.06664 6.79056 2.06323 8.13485L2.44328 7.80231C3.3496 7.00929 4.71556 7.05477 5.56711 7.90633L8.78441 11.1236C9.10655 11.4458 9.61364 11.4897 9.98637 11.2277L10.21 11.0706C11.2827 10.3167 12.7341 10.404 13.7086 11.2811L15.7891 13.1535C15.7947 13.1162 15.8 13.0783 15.8052 13.0398C15.9363 12.0648 15.9375 10.7837 15.9375 9C15.9375 7.21633 15.9363 5.93517 15.8052 4.96018C15.6763 4.00138 15.4311 3.42334 15.0039 2.9961C14.5767 2.56886 13.9986 2.32369 13.0398 2.19478C12.0648 2.06369 10.7837 2.0625 9 2.0625C7.21633 2.0625 5.93517 2.06369 4.96018 2.19478Z" fill="#616161"/>
</g>
<defs>
<clipPath id="clip0_442_555">
<rect width="18" height="18" fill="white"/>
</clipPath>
</defs>
</svg>
