<svg width="18" height="18" viewBox="0 0 18 18" fill="none" xmlns="http://www.w3.org/2000/svg">
<path fill-rule="evenodd" clip-rule="evenodd" d="M6.66418 2.52196C8.87122 0.409346 12.4398 0.409346 14.6468 2.52196C16.8677 4.64786 16.8677 8.10523 14.6468 10.2311L8.68577 15.9371C7.11823 17.4376 4.58649 17.4376 3.01894 15.9371C1.43752 14.4234 1.43752 11.9585 3.01894 10.4447L8.89421 4.82079C9.82227 3.93243 11.3172 3.93243 12.2452 4.82079C13.1872 5.72242 13.1872 7.19487 12.2452 8.0965L6.32709 13.7615C6.10267 13.9763 5.7466 13.9685 5.53178 13.7441C5.31697 13.5197 5.32475 13.1636 5.54917 12.9488L11.4673 7.28381C11.9465 6.82515 11.9465 6.09213 11.4673 5.63348C10.9743 5.16154 10.1652 5.16154 9.67213 5.63348L3.79686 11.2574C2.67821 12.3282 2.67821 14.0537 3.79686 15.1244C4.92938 16.2085 6.77533 16.2085 7.90785 15.1244L13.8689 9.41844C15.627 7.73551 15.627 5.01757 13.8689 3.33465C12.0969 1.63845 9.21412 1.63845 7.4421 3.33465L2.63896 7.9323C2.41454 8.14712 2.05847 8.13933 1.84366 7.91492C1.62884 7.6905 1.63662 7.33443 1.86104 7.11961L6.66418 2.52196Z" fill="#616161"/>
</svg>
