<svg width="18" height="18" viewBox="0 0 18 18" fill="none" xmlns="http://www.w3.org/2000/svg">
<g clip-path="url(#clip0_442_558)">
<path fill-rule="evenodd" clip-rule="evenodd" d="M13.0398 2.19478C12.0648 2.06369 10.7837 2.0625 9 2.0625C7.21633 2.0625 5.93517 2.06369 4.96018 2.19478C4.00138 2.32369 3.42334 2.56886 2.9961 2.9961C2.56885 3.42334 2.32369 4.00138 2.19478 4.96018C2.06369 5.93517 2.0625 7.21633 2.0625 9C2.0625 10.7837 2.06369 12.0648 2.19478 13.0398C2.32369 13.9986 2.56886 14.5767 2.9961 15.0039C3.34682 15.3546 3.79916 15.5827 4.48032 15.7244L15.7244 4.48032C15.5827 3.79915 15.3546 3.34682 15.0039 2.9961C14.5767 2.56885 13.9986 2.32369 13.0398 2.19478ZM15.8905 5.90523L11.2958 10.4999L15.3513 14.5553C15.5722 14.1809 15.7164 13.7008 15.8052 13.0398C15.9363 12.0648 15.9375 10.7837 15.9375 9C15.9375 7.7411 15.9369 6.73252 15.8905 5.90523ZM14.5559 15.3509L10.5003 11.2954L5.90523 15.8905C6.73252 15.9369 7.7411 15.9375 9 15.9375C10.7837 15.9375 12.0648 15.9363 13.0398 15.8052C13.7012 15.7163 14.1814 15.5721 14.5559 15.3509ZM13.1897 1.07981C14.2733 1.22549 15.1283 1.52949 15.7994 2.2006C16.4705 2.87171 16.7745 3.72673 16.9202 4.81028C17.0625 5.8689 17.0625 7.22567 17.0625 8.95697V9.04303C17.0625 10.7743 17.0625 12.1311 16.9202 13.1897C16.7745 14.2733 16.4705 15.1283 15.7994 15.7994C15.1283 16.4705 14.2733 16.7745 13.1897 16.9202C12.1311 17.0625 10.7743 17.0625 9.04303 17.0625H8.95697C7.22567 17.0625 5.8689 17.0625 4.81028 16.9202C3.72673 16.7745 2.87171 16.4705 2.2006 15.7994C1.5295 15.1283 1.22549 14.2733 1.07981 13.1897C0.937483 12.1311 0.937491 10.7743 0.9375 9.04304V8.95697C0.93749 7.22567 0.937483 5.86889 1.07981 4.81028C1.22549 3.72673 1.52949 2.87171 2.2006 2.2006C2.87171 1.5295 3.72673 1.22549 4.81028 1.07981C5.86889 0.937483 7.22567 0.937491 8.95696 0.9375H9.04303C10.7743 0.93749 12.1311 0.937483 13.1897 1.07981ZM3.5625 6.56791C3.5625 4.87064 5.02834 3.56243 6.75 3.56243C8.47166 3.56243 9.9375 4.87064 9.9375 6.56791C9.9375 8.08762 9.00314 9.88124 7.45107 10.5445C7.00516 10.7351 6.49484 10.7351 6.04893 10.5445C4.49686 9.88124 3.5625 8.08762 3.5625 6.56791ZM6.75 4.68743C5.57216 4.68743 4.6875 5.56673 4.6875 6.56791C4.6875 7.72551 5.42876 9.05606 6.49102 9.51001C6.65455 9.5799 6.84545 9.5799 7.00898 9.51001C8.07124 9.05606 8.8125 7.72551 8.8125 6.56791C8.8125 5.56673 7.92784 4.68743 6.75 4.68743Z" fill="#616161"/>
<path d="M7.5 6.75C7.5 7.16421 7.16421 7.5 6.75 7.5C6.33579 7.5 6 7.16421 6 6.75C6 6.33579 6.33579 6 6.75 6C7.16421 6 7.5 6.33579 7.5 6.75Z" fill="#616161"/>
</g>
<defs>
<clipPath id="clip0_442_558">
<rect width="18" height="18" fill="white"/>
</clipPath>
</defs>
</svg>
